<svg width="18" height="18" viewBox="0 0 18 18" fill="none" xmlns="http://www.w3.org/2000/svg">
<path d="M9 17.848C8.40625 17.848 7.85937 17.6996 7.35937 17.4027C6.875 17.1214 6.48438 16.7386 6.1875 16.2542C5.90625 15.7542 5.76563 15.2074 5.76563 14.6136C5.76563 13.8636 5.9375 13.2386 6.28125 12.7386C6.625 12.2386 7.15625 11.6527 7.875 10.9808C8.40625 10.4964 8.67188 10.0355 8.67188 9.598V9.17612H8.25C7.76562 9.17612 7.10156 9.6605 6.25781 10.6292C5.42969 11.598 4.42188 12.0824 3.23438 12.0824C2.64062 12.0824 2.09375 11.9417 1.59375 11.6605C1.10938 11.3636 0.71875 10.973 0.421875 10.4886C0.140625 9.98862 0 9.44175 0 8.848C0 8.25425 0.140625 7.71519 0.421875 7.23081C0.71875 6.73081 1.10938 6.34019 1.59375 6.05894C2.09375 5.76206 2.64062 5.61362 3.23438 5.61362C4.40625 5.61362 5.40625 6.09019 6.23437 7.04331C7.0625 7.99644 7.73437 8.473 8.25 8.473H8.67188V8.098C8.67188 7.6605 8.40625 7.19956 7.875 6.71519L7.33594 6.223C6.94531 5.86362 6.58594 5.43394 6.25781 4.93394C5.92969 4.41831 5.76563 3.80112 5.76563 3.08237C5.76563 2.48862 5.90625 1.94956 6.1875 1.46519C6.48438 0.965187 6.875 0.574562 7.35937 0.293312C7.85937 -0.00356298 8.40625 -0.152 9 -0.152C9.59375 -0.152 10.1328 -0.00356298 10.6172 0.293312C11.1172 0.590187 11.5078 0.980812 11.7891 1.46519C12.0859 1.94956 12.2344 2.48862 12.2344 3.08237C12.2344 4.25425 11.7578 5.25425 10.8047 6.08237C9.85156 6.9105 9.375 7.58237 9.375 8.098V8.473H9.75C10.2812 8.473 10.9531 7.99644 11.7656 7.04331C12.5625 6.09019 13.5625 5.61362 14.7656 5.61362C15.3594 5.61362 15.8984 5.76206 16.3828 6.05894C16.8828 6.34019 17.2734 6.723 17.5547 7.20737C17.8516 7.69175 18 8.23862 18 8.848C18 9.44175 17.8516 9.98862 17.5547 10.4886C17.2734 10.973 16.8828 11.3636 16.3828 11.6605C15.8984 11.9417 15.3594 12.0824 14.7656 12.0824C14.0312 12.0824 13.3984 11.9027 12.8672 11.5433C12.3516 11.1839 11.7734 10.6605 11.1328 9.973C10.6484 9.44175 10.1875 9.17612 9.75 9.17612H9.375V9.598C9.375 10.1761 9.85156 10.848 10.8047 11.6136C11.7578 12.3792 12.2344 13.3792 12.2344 14.6136C12.2344 15.2074 12.0859 15.7542 11.7891 16.2542C11.5078 16.7386 11.125 17.1214 10.6406 17.4027C10.1562 17.6996 9.60938 17.848 9 17.848Z" fill="#4169E1"/>
</svg>
